<svg xmlns="http://www.w3.org/2000/svg" viewBox="0 0 490.89 271.99"><defs><style>.cls-1{fill:#fff;}</style></defs><g id="Layer_2" data-name="Layer 2"><g id="Layer_2-2" data-name="Layer 2"><path class="cls-1" d="M197.49,151.3C185.14,129.17,172.7,106.85,158.86,82a747.31,747.31,0,0,1,172.26.06l-36.47,67c2.63-1.65,6.28-4.49,8.14-7.31,10.31-16.11,20.82-32.12,30.57-48.57,3.28-5.55,5.29-7.78,12.87-6.45,20.53,2.69,38.26,3.92,59.61,1l-21.94,28,1.62,1.71c4.5-4.34,9-8.72,13.53-13,25.56-28.7,76.22-23.23,85,13.24,3.18,23.46,4.64,47.14,6.82,70.73l-3.59.43q-2.88-19.15-5.75-38.32l-2.23-.4c-8.79,19.77-13.48,41.21-20.88,61.56-3.64,10.94-11.59,17.51-23.15,17.23-21.37-.53-42.72-2-64.06-3.34-2.52-.16-4.92-2-6.25-2.57,19.82-3.05,65.89,4,76.92-14.94,10.28-26.62,18.4-54.07,25.71-82.45-144.69,69.47-301.77,71.33-446.15-2,5.34,27.68,13.89,51,21.66,77.51,3.67,11.73,11.93,18.31,24.39,19,19,1,38,1.88,56.68,2.79-2.28.79-5.55,2.73-8.93,3-19.2,1.34-38.42,2.74-57.66,3.2-15.53.38-22.78-4.88-28-19.76-5.87-16.76-10.89-33.82-16.33-50.73A11.17,11.17,0,0,0,8,152q-2.81,18.86-5.59,37.69l-1.62.13c-2.76-21,2.93-42.51,2.52-63.72C4.28,91.56,48.67,77.57,71,90.55c8.51,5,16.14,11.52,23.75,17.85,4.32,3.6,7.78,8.22,13.59,10.76L85,88.64c20.48,1.09,40-.47,60.18-2.51,6.53-.85,8.36,1.06,11.28,5.92C169.73,111.47,179.94,135.64,197.49,151.3Z"/><path class="cls-1" d="M47.27,167.33c24.74,4.6,47.3,20.19,72.8,8.62,10.13-4.32,24.11-3.2,35.47-.59,62.78,14.43,125.19,11.61,187.61-1.49,12.79-2.69,24.48-.08,36.39,4.75,19.2,6.35,43.6-7.41,63-11.46l1.38,2.74c-26.9,13.67-57.58,19.63-86,29.85-11.72,2.09-23.44-7.57-34.83-7.52q-78-.9-156,0c-8.06.1-16,4.45-24.1,6.59-3.16.83-6.86,2.18-9.68,1.3-28.76-10.31-59.65-16.56-86.95-30Z"/><path class="cls-1" d="M421.82,79.94c-10-9-16.41-21.17-23.66-32.35C373.73-4.63,196,16.83,141.92,18.6,86.78,23.54,90,73.49,66.17,78.68,80.61,53.89,95,28.94,120,14.08c9.87-5.87,23-7.35,34.86-8.68C220.6-2,286.34-2.35,351.94,7.77c12.5,1.93,23.55,6.54,31.67,16.07C398.19,41,412.12,58.65,426.32,76.11Z"/><path class="cls-1" d="M77.13,80.68c18.74-22.81,27.45-52.45,58.27-56.2,21.47-2.95,43.2-4,64.85-5.62a39,39,0,0,1,14.6,1.45C92.94,52.24,148.17,98.56,77.13,80.68Z"/><path class="cls-1" d="M479.44,228.66c7.16,15-3.44,32.54-18.22,33.85a2406,2406,0,0,1-326.07,6.83c-34.9-1.66-69.77-4.28-104.63-6.84C15.7,261.4,5.27,244.67,9.91,226.33c9.85,18.16,4.39,30.81,28.18,30.55C177,268.71,316,268.3,455,257.21,473.4,256.77,475,242.32,479.44,228.66Z"/><path class="cls-1" d="M390.67,174.86c3.45-6.56,5.09-10.83,7.78-14.29,9.19-8.82,21.56,9.58,39.08-14.79,4.75-6.84,13.27-11.06,22.12-18C456.3,168.56,420.81,163.59,390.67,174.86Z"/><path class="cls-1" d="M99.11,175c-20-5.77-37.51-10-54.28-16.18-6.35-3-12.61-20.23-17.22-28.75,11.79,4.27,21.59,6.27,26.48,17.59,4.38,10.14,19.78,14.72,29.88,10.61C93.43,156.63,94,166.87,99.11,175Z"/><path class="cls-1" d="M153.34,248.22H337.43C310.49,255.16,180.7,255.17,153.34,248.22Z"/><path class="cls-1" d="M480.5,66.57c-19.44-3.27-32.07-4.15-51.62-2.32,1.28-2,3.39-7.9,5.2-7.81,13.72.66,27.4,2.34,41,4.17C476.78,60.83,478.09,63.8,480.5,66.57Z"/><path class="cls-1" d="M59.37,66.28C42.28,59,26.61,64.41,11,66.73l-1.3-2.51C21.54,54.63,36.81,57.14,51,55.75,58.82,55.31,61,59.32,59.37,66.28Z"/></g></g></svg>